<!-- Generator: Adobe Illustrator 23.0.1, SVG Export Plug-In  -->
<svg version="1.1" xmlns="http://www.w3.org/2000/svg" xmlns:xlink="http://www.w3.org/1999/xlink" x="0px" y="0px"
	 width="50.602px" height="36.205px" viewBox="0 0 50.602 36.205" style="enable-background:new 0 0 50.602 36.205;"
	 xml:space="preserve">
<style type="text/css">
	.st0{fill-rule:evenodd;clip-rule:evenodd;fill:#816616;}
</style>
<defs>
</defs>
<g>
	<path class="st0" d="M44.224,7.965h-6.37v2.982h6.37V7.965z M36.268,20.467c0-6.156-4.982-10.916-10.979-10.916
		c-6.155,0-11.137,4.76-11.137,10.916c0,6.188,4.982,11.168,11.137,11.168C31.285,31.635,36.268,26.654,36.268,20.467L36.268,20.467
		z M33.063,20.467c0,4.41-3.586,7.964-7.774,7.964c-4.378,0-7.964-3.554-7.964-7.964c0-4.348,3.585-7.934,7.964-7.934
		C29.477,12.533,33.063,16.119,33.063,20.467L33.063,20.467z M44.002,4.76c-0.793-0.381-1.396-0.983-1.777-1.777l-0.604-0.793
		C40.836,0.984,39.219,0,37.854,0h-8.758c-1.396,0-3.204,0.984-3.998,2.189l-0.603,0.793c-0.381,0.794-1.206,1.397-1.967,1.777
		h-4.601h-2.189h-9.55H2.983C1.396,4.76,0,6.156,0,7.965v25.257c0,1.587,1.396,2.983,2.983,2.983h44.414
		c1.587,0,3.205-1.396,3.205-2.983V7.965c0-1.809-1.618-3.205-3.205-3.205H44.002z M9.773,3.174c0-1.174-1.016-2.189-2.189-2.189
		H5.394C4.189,0.984,3.205,2,3.205,3.174v0.793h6.568V3.174z"/>
</g>
</svg>