<!-- Generator: Adobe Illustrator 23.0.1, SVG Export Plug-In  -->
<svg version="1.1" xmlns="http://www.w3.org/2000/svg" xmlns:xlink="http://www.w3.org/1999/xlink" x="0px" y="0px"
	 width="369.882px" height="158.222px" viewBox="0 0 369.882 158.222" style="enable-background:new 0 0 369.882 158.222;"
	 xml:space="preserve">
<style type="text/css">
	.st0{fill:#806516;}
</style>
<defs>
</defs>
<g>
	<path class="st0" d="M12.176,97.343v-1.105c-0.434-0.463-0.982-0.833-1.629-1.101c-0.667-0.273-1.574-0.411-2.696-0.411
		c-1.268,0-2.402,0.585-3.372,1.738c-0.985,1.173-1.814,3.038-2.464,5.546c-0.654,2.525-1.159,5.844-1.499,9.863
		C0.173,115.897,0,120.787,0,126.408c0,5.619,0.173,10.493,0.515,14.487c0.341,3.989,0.845,7.292,1.499,9.817
		c0.65,2.511,1.479,4.376,2.463,5.544c0.969,1.154,2.104,1.74,3.372,1.74c1.12,0,2.026-0.154,2.692-0.458
		c0.646-0.295,1.195-0.652,1.634-1.06v-1.197c-0.383,0.333-0.839,0.626-1.36,0.874c-0.642,0.305-1.504,0.46-2.563,0.46
		c-1.238,0-2.341-0.589-3.276-1.751c-0.921-1.139-1.693-2.945-2.294-5.366c-0.599-2.409-1.06-5.557-1.371-9.356
		c-0.312-3.796-0.47-8.427-0.47-13.764c0-5.339,0.158-9.985,0.47-13.81c0.311-3.828,0.772-6.991,1.371-9.401
		c0.6-2.418,1.372-4.224,2.294-5.368c0.997-1.236,2.099-1.863,3.276-1.863c1.057,0,1.917,0.138,2.557,0.412
		C11.272,96.544,11.721,96.872,12.176,97.343z"/>
	<path class="st0" d="M32.643,141.568H19.191l-2.682,16.569h-0.995l10.646-63.553l10.169,63.553H35.42L32.643,141.568z
		 M19.398,140.665h13.244l-6.32-41.571h-0.273L19.398,140.665z"/>
	<path class="st0" d="M73.024,141.568H59.573l-2.682,16.569h-0.995l10.646-63.553l10.169,63.553h-0.911L73.024,141.568z
		 M59.78,140.665h13.244l-6.32-41.571h-0.273L59.78,140.665z"/>
	<path class="st0" d="M99.249,117.379c-1.097-0.898-2.381-1.437-3.902-1.633v41.377c1.524-0.194,2.809-0.725,3.908-1.612
		c1.353-1.092,2.462-2.568,3.295-4.387c0.857-1.871,1.487-4.089,1.873-6.593c0.391-2.54,0.59-5.246,0.59-8.042
		c0-2.796-0.198-5.503-0.59-8.044c-0.387-2.504-1.017-4.732-1.875-6.623C101.714,119.986,100.604,118.491,99.249,117.379z
		 M103.858,136.49c0,2.107-0.107,4.192-0.318,6.196c-0.213,2.021-0.554,3.892-1.014,5.562c-0.471,1.708-1.079,3.183-1.81,4.386
		c-0.798,1.314-1.789,2.203-2.945,2.642l-1.27,0.482v-38.7l1.3,0.546c1.144,0.48,2.125,1.384,2.915,2.686
		c0.729,1.201,1.338,2.677,1.809,4.384c0.46,1.674,0.802,3.555,1.014,5.591C103.751,132.288,103.858,134.382,103.858,136.49z"/>
	<polygon class="st0" points="118.14,146.372 118.14,145.212 113.572,145.212 113.572,117.406 118.236,117.406 118.236,116.274 
		112.369,116.274 112.369,157.199 118.669,157.199 118.669,156.062 113.572,156.062 113.572,146.372 	"/>
	<path class="st0" d="M299.781,98.957c-1.63-1.334-3.536-2.134-5.796-2.426v61.464c2.264-0.288,4.173-1.077,5.805-2.394
		c2.011-1.623,3.657-3.815,4.895-6.516c1.273-2.78,2.209-6.075,2.783-9.794c0.581-3.773,0.876-7.793,0.876-11.946
		c0-4.154-0.295-8.174-0.876-11.95c-0.574-3.719-1.511-7.03-2.785-9.839C303.444,102.83,301.795,100.609,299.781,98.957z
		 M306.628,127.345c0,3.131-0.159,6.227-0.472,9.204c-0.317,3.002-0.823,5.782-1.506,8.263c-0.699,2.536-1.603,4.728-2.688,6.515
		c-1.185,1.952-2.657,3.273-4.375,3.925l-2.284,0.716V98.479l2.329,0.811c1.699,0.714,3.156,2.056,4.33,3.99
		c1.084,1.785,1.988,3.976,2.688,6.513c0.684,2.487,1.191,5.281,1.507,8.305C306.469,121.103,306.628,124.214,306.628,127.345z"/>
	<polygon class="st0" points="245.131,141.776 245.131,140.283 237.962,140.283 237.962,98.842 245.273,98.842 245.273,97.277 
		236.577,97.277 236.577,158.051 245.915,158.051 245.915,156.649 237.962,156.649 237.962,141.776 	"/>
	<polygon class="st0" points="328.226,141.776 328.226,140.283 321.057,140.283 321.057,98.842 328.369,98.842 328.369,97.277 
		319.672,97.277 319.672,158.051 329.01,158.051 329.01,156.649 321.057,156.649 321.057,141.776 	"/>
	<path class="st0" d="M156.255,158.136v-52.81l0.057,0.057l-10.098,43.864l-9.961-43.921v18.577v34.233h-1.095V94.584l10.92,48.326
		h0.272l11.057-48.326v63.553H156.255z"/>
	<path class="st0" d="M182.569,141.798c0.453-4.061,0.682-9.059,0.682-14.856c0-11.492-0.869-19.987-2.584-25.248
		c-1.539-4.718-3.517-7.111-5.88-7.111c-2.409,0-4.399,2.39-5.915,7.105c-1.692,5.264-2.55,13.76-2.55,25.254
		c0,5.803,0.23,10.801,0.682,14.856c0.448,4.017,1.088,7.332,1.903,9.854c0.768,2.385,1.69,4.106,2.741,5.118
		c0.955,0.919,1.981,1.366,3.138,1.366c1.156,0,2.182-0.447,3.137-1.366c1.049-1.01,1.972-2.731,2.742-5.118
		C181.479,149.13,182.12,145.814,182.569,141.798z M178.462,153.415c-1.186,2.143-2.653,2.592-3.675,2.592
		c-1.023,0-2.49-0.45-3.676-2.592c-0.755-1.365-1.351-3.293-1.822-5.894c-0.886-4.897-1.335-11.82-1.335-20.579
		c0-4.335,0.111-8.33,0.331-11.871c0.221-3.562,0.558-6.656,1.003-9.198c0.468-2.67,1.061-4.698,1.813-6.201
		c0.954-1.909,2.194-2.877,3.687-2.877c1.491,0,2.732,0.968,3.687,2.878c0.753,1.507,1.346,3.535,1.813,6.2
		c0.445,2.541,0.783,5.636,1.003,9.198c0.219,3.531,0.331,7.525,0.331,11.871c0,8.763-0.449,15.686-1.335,20.579
		C179.814,150.122,179.218,152.05,178.462,153.415z"/>
	<path class="st0" d="M193.036,103.789h-0.273v54.347h-1.095V94.584l15.808,54.828h0.273l-0.114-51.964l1.3-0.057v60.746
		L193.036,103.789z"/>
	<path class="st0" d="M222.094,158.136V98.781h-7.085v-1.39h15.493v1.39h-6.949v59.355H222.094z"/>
	<path class="st0" d="M263.057,149.917h0.273l9.233-52.526h1.073l-10.647,60.746l-10.237-60.746h1.221L263.057,149.917z"/>
	<path class="st0" d="M282.358,158.136V97.391h1.016v60.746H282.358z"/>
	<path class="st0" d="M42.749,158.222c3.137,0,5.486-1.2,7.182-3.668c1.829-2.661,2.756-6.584,2.756-11.66
		c0-2.58-0.35-4.921-1.04-6.958c-0.724-2.133-1.635-4.242-2.707-6.268c-0.969-1.768-1.976-3.486-2.992-5.104
		c-1.088-1.735-2.077-3.526-2.939-5.322l-0.005-0.011c-0.729-1.547-1.337-3.176-1.805-4.842c-0.488-1.733-0.735-3.55-0.735-5.4
		c0-4.22,0.627-7.266,1.916-9.309c1.429-2.263,3.594-3.459,6.261-3.459c0.5,0,0.994,0.05,1.47,0.148v-1.156
		c-0.118-0.065-0.245-0.132-0.379-0.199c-0.155-0.078-0.637-0.259-1.754-0.259c-2.524,0-4.456,1.078-5.906,3.295
		c-1.601,2.447-2.412,5.929-2.412,10.351c0,2.386,0.296,4.595,0.879,6.565c0.601,2.035,1.372,3.973,2.293,5.759
		c1.001,1.909,2.097,3.857,3.256,5.787c1.204,2.007,2.327,4.135,3.337,6.324l0.015,0.034c0.677,1.55,1.231,3.163,1.647,4.796
		c0.431,1.692,0.649,3.451,0.649,5.228c0,4.508-0.713,7.817-2.179,10.116c-0.812,1.275-1.884,2.249-3.184,2.895
		c-1.251,0.621-2.717,0.936-4.36,0.936c-0.576,0-1.118-0.054-1.617-0.161v1.166c0.09,0.039,0.187,0.078,0.29,0.116
		C41.009,158.081,41.629,158.222,42.749,158.222z"/>
	<g>
		<path class="st0" d="M365.163,149.598c-1.486,0-2.651,0.384-3.464,1.14c-0.81,0.754-1.22,1.741-1.22,2.933
			c0,1.233,0.419,2.249,1.246,3.02c0.83,0.774,2.019,1.166,3.534,1.166c1.462,0,2.611-0.388,3.415-1.152
			c0.802-0.763,1.208-1.813,1.208-3.122c0-1.04-0.255-1.903-0.757-2.567c-0.472-0.625-1.136-1.07-1.974-1.326l-0.167,1.347
			c0.633,0.244,1.107,0.572,1.408,0.978c0.32,0.43,0.482,0.955,0.482,1.56c0,0.811-0.288,1.497-0.855,2.04
			c-0.564,0.539-1.381,0.843-2.429,0.903l-0.15,0.009v-6.924C365.321,149.6,365.23,149.598,365.163,149.598z M364.433,156.441
			l-0.151-0.01c-0.841-0.054-1.524-0.343-2.03-0.858c-0.508-0.517-0.765-1.162-0.765-1.919c0-0.838,0.323-1.529,0.959-2.056
			c0.41-0.343,1.027-0.553,1.832-0.625l0.155-0.014V156.441z"/>
		<path class="st0" d="M360.689,148.282l8.984-3.418v-1.27l-8.984-3.401v1.309l5.562,2.026c0.68,0.248,1.27,0.443,1.753,0.582
			l0.483,0.138l-0.484,0.135c-0.639,0.178-1.264,0.377-1.858,0.59l-5.456,1.956V148.282z"/>
		<path class="st0" d="M365.163,130.722c-1.486,0-2.651,0.384-3.464,1.14c-0.81,0.754-1.22,1.741-1.22,2.933
			c0,1.233,0.419,2.249,1.246,3.02c0.83,0.774,2.019,1.166,3.534,1.166c1.462,0,2.611-0.388,3.415-1.152
			c0.802-0.763,1.208-1.813,1.208-3.122c0-1.04-0.255-1.903-0.757-2.567c-0.472-0.625-1.136-1.07-1.974-1.326l-0.167,1.347
			c0.633,0.244,1.107,0.572,1.408,0.978c0.32,0.43,0.482,0.955,0.482,1.56c0,0.811-0.288,1.497-0.855,2.04
			c-0.564,0.54-1.381,0.843-2.429,0.903l-0.15,0.009v-6.924C365.321,130.723,365.23,130.722,365.163,130.722z M364.433,137.565
			l-0.151-0.01c-0.841-0.054-1.524-0.343-2.03-0.858c-0.508-0.517-0.765-1.162-0.765-1.919c0-0.838,0.323-1.529,0.959-2.056
			c0.41-0.343,1.027-0.553,1.832-0.626l0.155-0.014V137.565z"/>
		<path class="st0" d="M360.769,122.812c-0.192,0.448-0.29,0.948-0.29,1.484c0,1.247,0.479,2.173,1.464,2.832l0.389,0.26h-1.644
			v1.13h8.984v-1.287h-4.92c-1.224,0-2.073-0.262-2.524-0.777c-0.446-0.51-0.672-1.125-0.672-1.826c0-0.443,0.102-0.836,0.304-1.169
			c0.205-0.337,0.484-0.576,0.83-0.709c0.337-0.13,0.823-0.193,1.487-0.193h5.496v-1.287h-5.557c-0.714,0-1.219,0.028-1.499,0.085
			c-0.425,0.088-0.798,0.245-1.106,0.465C361.208,122.036,360.958,122.37,360.769,122.812z"/>
		<path class="st0" d="M368.899,118.11c0.264-0.115,0.481-0.318,0.645-0.604c0.167-0.291,0.252-0.714,0.252-1.256
			c0-0.302-0.037-0.646-0.11-1.025l-1.116,0.183c0.029,0.229,0.044,0.42,0.044,0.572c0,0.262-0.044,0.461-0.134,0.61
			c-0.091,0.15-0.215,0.26-0.371,0.327c-0.094,0.041-0.291,0.095-0.92,0.095h-5.561v-1.58h-0.938v1.58h-3.128l0.771,1.278h2.357
			v1.152h0.938v-1.152h5.474C368.02,118.29,368.624,118.229,368.899,118.11z"/>
		<path class="st0" d="M367.799,106.318c-0.66-0.345-1.585-0.521-2.749-0.521c-1.427,0-2.558,0.395-3.361,1.173
			c-0.802,0.777-1.209,1.794-1.209,3.022c0,1.106,0.335,2.055,0.995,2.822c0.794,0.917,2.041,1.382,3.706,1.382
			c1.52,0,2.696-0.39,3.497-1.16c0.799-0.768,1.204-1.792,1.204-3.044c0-0.78-0.185-1.51-0.549-2.17
			C368.97,107.167,368.454,106.661,367.799,106.318z M367.941,112.054c-0.614,0.539-1.543,0.812-2.76,0.812
			c-1.217,0-2.144-0.273-2.756-0.812c-0.617-0.544-0.93-1.237-0.93-2.061c0-0.813,0.314-1.502,0.934-2.048
			c0.615-0.542,1.523-0.817,2.699-0.817c1.246,0,2.19,0.273,2.807,0.812c0.623,0.544,0.939,1.234,0.939,2.053
			C368.875,110.817,368.561,111.511,367.941,112.054z"/>
		<path class="st0" d="M369.163,103.146c0.478-0.602,0.72-1.499,0.72-2.665c0-0.704-0.124-1.343-0.368-1.898
			c-0.241-0.548-0.584-0.972-1.022-1.261c-0.437-0.288-0.908-0.435-1.401-0.435c-0.503,0-0.928,0.118-1.263,0.35
			c-0.337,0.234-0.598,0.561-0.775,0.974c-0.186,0.432-0.429,1.208-0.722,2.306c-0.213,0.781-0.345,1.239-0.406,1.4
			c-0.121,0.3-0.277,0.523-0.466,0.666c-0.186,0.146-0.4,0.221-0.636,0.221c-0.365,0-0.684-0.174-0.95-0.518
			c-0.261-0.337-0.387-0.871-0.387-1.632c0-0.641,0.146-1.148,0.433-1.507c0.263-0.329,0.622-0.542,1.069-0.634l-0.171-1.254
			c-0.508,0.099-0.922,0.263-1.231,0.49c-0.334,0.244-0.603,0.632-0.802,1.153c-0.202,0.531-0.305,1.159-0.305,1.865
			c0,0.467,0.061,0.91,0.182,1.317c0.12,0.404,0.267,0.725,0.436,0.955c0.22,0.308,0.499,0.554,0.83,0.731
			c0.33,0.177,0.693,0.267,1.08,0.267c0.425,0,0.819-0.109,1.169-0.324c0.35-0.214,0.628-0.535,0.827-0.952
			c0.207-0.434,0.458-1.231,0.745-2.369c0.221-0.879,0.401-1.418,0.551-1.648c0.231-0.35,0.553-0.527,0.957-0.527
			c0.438,0,0.822,0.193,1.143,0.574c0.315,0.374,0.474,0.945,0.474,1.697c0,0.746-0.178,1.339-0.53,1.762
			c-0.327,0.393-0.79,0.647-1.378,0.755l0.2,1.269C368.04,104.095,368.711,103.715,369.163,103.146z"/>
	</g>
	<path class="st0" d="M352.709,153.314c0.682-1.735,1.187-3.899,1.501-6.433c0.321-2.597,0.484-5.569,0.484-8.832V97.245h-1.338
		v41.047c0,5.624-0.363,9.715-1.111,12.506c-1.119,4.173-3.864,6.008-5.702,6.008c-1.802,0-4.511-1.833-5.663-5.997
		c-0.774-2.79-1.15-6.884-1.15-12.517V97.245h-1.339v40.804c0,3.268,0.163,6.24,0.484,8.832c0.312,2.527,0.826,4.686,1.53,6.417
		c0.654,1.613,1.502,2.838,2.52,3.642c0.966,0.766,2.149,1.139,3.616,1.139c1.514,0,2.72-0.372,3.686-1.137
		C351.242,156.141,352.077,154.92,352.709,153.314z"/>
</g>
<g>
	<path class="st0" d="M181.508,34.349v38.623h6.304V72.42h-5.764V61.176h5.196v-0.618h-5.196V34.354
		c7.422-0.096,13.431-6.16,13.431-13.605c0-7.504-6.105-13.609-13.609-13.609c-7.504,0-13.609,6.105-13.609,13.609
		C168.26,28.132,174.171,34.156,181.508,34.349z M181.508,33.654c-6.329-0.176-11.534-4.924-12.417-11.054
		c1.44,2.464,4.119,4.315,4.258,4.41l0.016,0.01c0.187,0.11,4.602,2.666,6.83,0.824c0.604-0.499,1.021-0.999,1.313-1.488V33.654z
		 M181.869,21.808c-0.25-0.459-0.65-0.828-1.162-1.059c0.512-0.231,0.912-0.6,1.162-1.059c0.25,0.459,0.65,0.828,1.162,1.059
		C182.519,20.98,182.119,21.349,181.869,21.808z M182.048,33.659v-7.641c0.29,0.595,0.753,1.211,1.497,1.826
		c2.228,1.842,6.643-0.714,6.83-0.824l0.016-0.01c0.139-0.095,2.818-1.946,4.258-4.41C193.757,28.789,188.46,33.571,182.048,33.659z
		 M194.783,20.749c0,0.072-0.004,0.143-0.005,0.215c-0.911,2.913-4.498,5.446-4.692,5.581c-0.212,0.122-4.296,2.433-6.187,0.87
		c-1.355-1.12-1.681-2.221-1.751-3.195c0.022-0.336,0.017-0.654,0.012-0.945c-0.002-0.116-0.004-0.229-0.004-0.337
		c0-0.047-0.007-0.091-0.01-0.136c0.072-1.049,0.964-1.77,2.223-1.77c1.358,0,2.271,0.847,2.271,2.109c0,1.2-0.739,1.732-0.77,1.754
		l0.158,0.229l0.157,0.229c0.041-0.028,1.011-0.707,1.011-2.212c0-1.104-0.577-1.972-1.499-2.39c0.921-0.418,1.499-1.286,1.499-2.39
		c0-1.505-0.97-2.184-1.011-2.212l-0.313,0.459c0.008,0.005,0.769,0.538,0.769,1.753c0,1.261-0.913,2.109-2.271,2.109
		c-1.259,0-2.151-0.721-2.223-1.77c0.002-0.046,0.01-0.09,0.01-0.136c0-0.108,0.002-0.221,0.004-0.337
		c0.005-0.291,0.01-0.609-0.012-0.946c0.07-0.975,0.396-2.075,1.751-3.195c1.888-1.562,5.976,0.749,6.187,0.87
		c0.195,0.135,3.781,2.665,4.692,5.58C194.779,20.606,194.783,20.677,194.783,20.749z M181.87,7.835
		c6.492,0,11.879,4.817,12.779,11.064c-1.44-2.464-4.119-4.315-4.258-4.41l-0.016-0.01c-0.187-0.11-4.602-2.666-6.83-0.824
		c-0.92,0.761-1.413,1.523-1.676,2.245c-0.263-0.721-0.755-1.484-1.675-2.245c-2.228-1.842-6.643,0.714-6.83,0.824l-0.016,0.01
		c-0.139,0.095-2.818,1.946-4.258,4.41C169.991,12.652,175.377,7.835,181.87,7.835z M173.653,14.953
		c0.212-0.122,4.296-2.433,6.187-0.87c1.355,1.12,1.682,2.221,1.751,3.195c-0.012,0.187-0.017,0.368-0.017,0.542
		c0,0.139,0.002,0.274,0.005,0.404c0.002,0.116,0.004,0.229,0.004,0.337c0,0.047,0.007,0.091,0.01,0.136
		c-0.072,1.049-0.964,1.77-2.223,1.77c-1.358,0-2.271-0.847-2.271-2.109c0-1.2,0.739-1.732,0.77-1.754l-0.314-0.458
		c-0.041,0.028-1.011,0.707-1.011,2.212c0,1.104,0.577,1.972,1.499,2.39c-0.921,0.418-1.499,1.286-1.499,2.39
		c0,1.505,0.97,2.183,1.011,2.212l0.313-0.459c-0.008-0.005-0.769-0.538-0.769-1.753c0-1.261,0.913-2.109,2.271-2.109
		c1.068,0,1.874,0.519,2.138,1.316v2.488c-0.165,0.812-0.59,1.69-1.667,2.58c-1.888,1.561-5.976-0.749-6.187-0.87
		c-0.194-0.135-3.781-2.665-4.692-5.58c-0.001-0.072-0.005-0.143-0.005-0.215c0-0.072,0.004-0.144,0.005-0.216
		C169.872,17.621,173.459,15.088,173.653,14.953z"/>
	<g>
		<path class="st0" d="M200.686,78.002h-37.633V0h37.633V78.002z M164.013,77.042h35.714V0.959h-35.714V77.042z"/>
	</g>
</g>
</svg>